<svg width="24" height="24" viewBox="0 0 24 24" fill="none" xmlns="http://www.w3.org/2000/svg">
<g clip-path="url(#clip0_5731_6402)">
<path d="M3.99984 6.41481L0.756836 3.17281L2.17184 1.75781L5.41384 5.00081H20.6558C20.8117 5.0008 20.9654 5.03723 21.1047 5.10718C21.244 5.17713 21.365 5.27868 21.4581 5.40371C21.5511 5.52874 21.6137 5.6738 21.6407 5.8273C21.6678 5.9808 21.6586 6.1385 21.6138 6.28781L19.2138 14.2878C19.1521 14.4939 19.0255 14.6746 18.853 14.803C18.6804 14.9315 18.471 15.0008 18.2558 15.0008H5.99984V17.0008H16.9998V19.0008H4.99984C4.73462 19.0008 4.48027 18.8955 4.29273 18.7079C4.10519 18.5204 3.99984 18.266 3.99984 18.0008V6.41481ZM5.99984 7.00081V13.0008H17.5118L19.3118 7.00081H5.99984ZM5.49984 23.0008C5.10201 23.0008 4.72048 22.8428 4.43918 22.5615C4.15787 22.2802 3.99984 21.8986 3.99984 21.5008C3.99984 21.103 4.15787 20.7215 4.43918 20.4402C4.72048 20.1588 5.10201 20.0008 5.49984 20.0008C5.89766 20.0008 6.27919 20.1588 6.5605 20.4402C6.8418 20.7215 6.99984 21.103 6.99984 21.5008C6.99984 21.8986 6.8418 22.2802 6.5605 22.5615C6.27919 22.8428 5.89766 23.0008 5.49984 23.0008ZM17.4998 23.0008C17.102 23.0008 16.7205 22.8428 16.4392 22.5615C16.1579 22.2802 15.9998 21.8986 15.9998 21.5008C15.9998 21.103 16.1579 20.7215 16.4392 20.4402C16.7205 20.1588 17.102 20.0008 17.4998 20.0008C17.8977 20.0008 18.2792 20.1588 18.5605 20.4402C18.8418 20.7215 18.9998 21.103 18.9998 21.5008C18.9998 21.8986 18.8418 22.2802 18.5605 22.5615C18.2792 22.8428 17.8977 23.0008 17.4998 23.0008Z" fill="#161616"/>
</g>
<defs>
<clipPath id="clip0_5731_6402">
<rect width="24" height="24" fill="white"/>
</clipPath>
</defs>
</svg>
