<svg width="119" height="28" viewBox="0 0 119 28" fill="none" xmlns="http://www.w3.org/2000/svg">
<path d="M23 4.99819V22.9961L17 22.994V25.9961L23 25.9982C24.8935 25.9982 26 24.8917 26 22.9982V5.00028C26 3.10673 24.8935 1.99819 23 1.99819L17 1.99608V4.99608L23 4.99819Z" fill="#161616"/>
<path d="M5 22.9982V4.99819L11 4.99609V1.99609L5 1.99819C3.10645 1.99819 2 3.10673 2 5.00028V23.0003C2 24.8938 3.10645 25.9982 5 25.9982L11 25.9961V22.9961L5 22.9982Z" fill="#161616"/>
<rect x="10" y="10" width="8" height="8" fill="#161616"/>
<path d="M40 20.24C39.28 20.24 38.5933 20.1333 37.94 19.92C37.3 19.6933 36.74 19.3533 36.26 18.9C35.78 18.4467 35.4 17.88 35.12 17.2C34.84 16.52 34.7 15.72 34.7 14.8V14.4C34.7 13.5333 34.84 12.7733 35.12 12.12C35.4 11.4667 35.78 10.92 36.26 10.48C36.74 10.04 37.3 9.71333 37.94 9.5C38.5933 9.27333 39.28 9.16 40 9.16C40.72 9.16 41.4 9.27333 42.04 9.5C42.68 9.71333 43.24 10.04 43.72 10.48C44.2133 10.92 44.6 11.4667 44.88 12.12C45.16 12.7733 45.3 13.5333 45.3 14.4V14.8C45.3 15.7067 45.16 16.5 44.88 17.18C44.6 17.86 44.2133 18.4267 43.72 18.88C43.24 19.3333 42.68 19.6733 42.04 19.9C41.4 20.1267 40.72 20.24 40 20.24ZM40 18C40.7467 18 41.3667 17.7333 41.86 17.2C42.3667 16.6667 42.62 15.8667 42.62 14.8V14.4C42.62 13.4267 42.3667 12.6867 41.86 12.18C41.3667 11.66 40.7467 11.4 40 11.4C39.24 11.4 38.6133 11.66 38.12 12.18C37.6267 12.6867 37.38 13.4267 37.38 14.4V14.8C37.38 15.88 37.6267 16.6867 38.12 17.22C38.6133 17.74 39.24 18 40 18ZM47.1922 6H49.8322V13.76L53.7522 9.4H56.7922L52.7122 13.94L57.1922 20H54.1122L51.0322 15.68L49.8322 16.94V20H47.1922V6ZM63.1055 20.24C62.3855 20.24 61.6988 20.1333 61.0455 19.92C60.4055 19.6933 59.8455 19.3533 59.3655 18.9C58.8855 18.4467 58.5055 17.88 58.2255 17.2C57.9455 16.52 57.8055 15.72 57.8055 14.8V14.4C57.8055 13.5333 57.9455 12.7733 58.2255 12.12C58.5055 11.4667 58.8855 10.92 59.3655 10.48C59.8455 10.04 60.4055 9.71333 61.0455 9.5C61.6988 9.27333 62.3855 9.16 63.1055 9.16C63.8255 9.16 64.5055 9.27333 65.1455 9.5C65.7855 9.71333 66.3455 10.04 66.8255 10.48C67.3188 10.92 67.7055 11.4667 67.9855 12.12C68.2655 12.7733 68.4055 13.5333 68.4055 14.4V14.8C68.4055 15.7067 68.2655 16.5 67.9855 17.18C67.7055 17.86 67.3188 18.4267 66.8255 18.88C66.3455 19.3333 65.7855 19.6733 65.1455 19.9C64.5055 20.1267 63.8255 20.24 63.1055 20.24ZM63.1055 18C63.8521 18 64.4721 17.7333 64.9655 17.2C65.4721 16.6667 65.7255 15.8667 65.7255 14.8V14.4C65.7255 13.4267 65.4721 12.6867 64.9655 12.18C64.4721 11.66 63.8521 11.4 63.1055 11.4C62.3455 11.4 61.7188 11.66 61.2255 12.18C60.7321 12.6867 60.4855 13.4267 60.4855 14.4V14.8C60.4855 15.88 60.7321 16.6867 61.2255 17.22C61.7188 17.74 62.3455 18 63.1055 18ZM70.2977 9.4H72.7577V10.96C73.0243 10.48 73.4443 10.06 74.0177 9.7C74.591 9.34 75.3177 9.16 76.1977 9.16C77.611 9.16 78.711 9.6 79.4977 10.48C80.2977 11.3467 80.6977 12.6533 80.6977 14.4V14.8C80.6977 16.6267 80.291 17.9933 79.4777 18.9C78.6777 19.7933 77.5843 20.24 76.1977 20.24C75.4777 20.24 74.8377 20.0867 74.2777 19.78C73.731 19.46 73.2843 19.0467 72.9377 18.54V24H70.2977V9.4ZM75.5777 18C76.271 18 76.851 17.74 77.3177 17.22C77.7843 16.6867 78.0177 15.88 78.0177 14.8V14.4C78.0177 13.4 77.791 12.6533 77.3377 12.16C76.8843 11.6533 76.2977 11.4 75.5777 11.4C74.8177 11.4 74.1843 11.62 73.6777 12.06C73.1843 12.4867 72.9377 13.1333 72.9377 14V15.2C72.9377 16.1467 73.1777 16.8533 73.6577 17.32C74.151 17.7733 74.791 18 75.5777 18ZM82.6023 9.4H85.0423V10.96C85.1357 10.7467 85.269 10.5333 85.4423 10.32C85.6157 10.0933 85.8223 9.9 86.0623 9.74C86.3023 9.56667 86.5623 9.42667 86.8423 9.32C87.1357 9.21333 87.4557 9.16 87.8023 9.16C88.0557 9.16 88.269 9.17333 88.4423 9.2C88.629 9.22667 88.749 9.25333 88.8023 9.28V11.62C88.669 11.5667 88.4957 11.52 88.2823 11.48C88.0823 11.4267 87.809 11.4 87.4623 11.4C87.0623 11.4 86.7223 11.4667 86.4423 11.6C86.1623 11.7333 85.929 11.9133 85.7423 12.14C85.569 12.3533 85.4423 12.6067 85.3623 12.9C85.2823 13.1933 85.2423 13.5 85.2423 13.82V20H82.6023V9.4ZM95 20.24C94.28 20.24 93.5933 20.1333 92.94 19.92C92.3 19.6933 91.74 19.3533 91.26 18.9C90.78 18.4467 90.4 17.88 90.12 17.2C89.84 16.52 89.7 15.72 89.7 14.8V14.4C89.7 13.5333 89.84 12.7733 90.12 12.12C90.4 11.4667 90.78 10.92 91.26 10.48C91.74 10.04 92.3 9.71333 92.94 9.5C93.5933 9.27333 94.28 9.16 95 9.16C95.72 9.16 96.4 9.27333 97.04 9.5C97.68 9.71333 98.24 10.04 98.72 10.48C99.2133 10.92 99.6 11.4667 99.88 12.12C100.16 12.7733 100.3 13.5333 100.3 14.4V14.8C100.3 15.7067 100.16 16.5 99.88 17.18C99.6 17.86 99.2133 18.4267 98.72 18.88C98.24 19.3333 97.68 19.6733 97.04 19.9C96.4 20.1267 95.72 20.24 95 20.24ZM95 18C95.7467 18 96.3667 17.7333 96.86 17.2C97.3667 16.6667 97.62 15.8667 97.62 14.8V14.4C97.62 13.4267 97.3667 12.6867 96.86 12.18C96.3667 11.66 95.7467 11.4 95 11.4C94.24 11.4 93.6133 11.66 93.12 12.18C92.6267 12.6867 92.38 13.4267 92.38 14.4V14.8C92.38 15.88 92.6267 16.6867 93.12 17.22C93.6133 17.74 94.24 18 95 18ZM102.192 9.4H104.632V10.98C104.752 10.74 104.906 10.5133 105.092 10.3C105.292 10.0867 105.519 9.89333 105.772 9.72C106.039 9.54667 106.326 9.41333 106.632 9.32C106.952 9.21333 107.292 9.16 107.652 9.16C108.506 9.16 109.172 9.33333 109.652 9.68C110.146 10.0267 110.492 10.4867 110.692 11.06C110.986 10.5 111.406 10.0467 111.952 9.7C112.512 9.34 113.172 9.16 113.932 9.16C115.066 9.16 115.926 9.48667 116.512 10.14C117.099 10.78 117.392 11.7667 117.392 13.1V20H114.752V13.7C114.752 12.86 114.612 12.2667 114.332 11.92C114.066 11.5733 113.632 11.4 113.032 11.4C112.499 11.4 112.046 11.6067 111.672 12.02C111.299 12.42 111.112 12.98 111.112 13.7V20H108.472V13.7C108.472 12.86 108.332 12.2667 108.052 11.92C107.786 11.5733 107.352 11.4 106.752 11.4C106.219 11.4 105.766 11.6067 105.392 12.02C105.019 12.42 104.832 12.98 104.832 13.7V20H102.192V9.4Z" fill="#161616"/>
</svg>
