<svg width="24" height="24" viewBox="0 0 24 24" fill="none" xmlns="http://www.w3.org/2000/svg">
<g clip-path="url(#clip0_108_3194)">
<path d="M17 15.246V22.118C17 22.2064 16.9766 22.2933 16.932 22.3697C16.8875 22.4462 16.8235 22.5094 16.7465 22.5531C16.6696 22.5967 16.5824 22.6191 16.4939 22.618C16.4055 22.6169 16.3189 22.5924 16.243 22.547L12 20.001L7.757 22.547C7.68104 22.5925 7.59436 22.617 7.50581 22.618C7.41727 22.6191 7.33004 22.5965 7.25304 22.5528C7.17605 22.5091 7.11205 22.4457 7.06759 22.3691C7.02313 22.2925 6.9998 22.2055 7 22.117V15.247C5.70615 14.211 4.76599 12.7988 4.30946 11.2055C3.85293 9.61215 3.90256 7.91634 4.45149 6.35242C5.00043 4.78851 6.02156 3.4337 7.37378 2.47523C8.726 1.51676 10.3425 1.00195 12 1.00195C13.6575 1.00195 15.274 1.51676 16.6262 2.47523C17.9784 3.4337 18.9996 4.78851 19.5485 6.35242C20.0974 7.91634 20.1471 9.61215 19.6905 11.2055C19.234 12.7988 18.2939 14.211 17 15.247V15.246ZM9 16.419V19.469L12 17.669L15 19.469V16.419C14.0468 16.8044 13.0282 17.0021 12 17.001C10.9718 17.0021 9.95316 16.8044 9 16.419ZM12 15.001C13.5913 15.001 15.1174 14.3688 16.2426 13.2436C17.3679 12.1184 18 10.5922 18 9.00095C18 7.40965 17.3679 5.88353 16.2426 4.75831C15.1174 3.63309 13.5913 3.00095 12 3.00095C10.4087 3.00095 8.88258 3.63309 7.75736 4.75831C6.63214 5.88353 6 7.40965 6 9.00095C6 10.5922 6.63214 12.1184 7.75736 13.2436C8.88258 14.3688 10.4087 15.001 12 15.001Z" fill="#161616"/>
</g>
<defs>
<clipPath id="clip0_108_3194">
<rect width="24" height="24" fill="white"/>
</clipPath>
</defs>
</svg>
